<?xml version="1.0" encoding="UTF-8"?>
<svg xmlns="http://www.w3.org/2000/svg" viewBox="0 0 800 600" width="800" height="600">
  <defs>
    <linearGradient id="bg-innovation" x1="0%" y1="0%" x2="100%" y2="100%">
      <stop offset="0%" stop-color="#6d28d9"/>
      <stop offset="55%" stop-color="#db2777"/>
      <stop offset="100%" stop-color="#f472b6"/>
    </linearGradient>
    <radialGradient id="glow-innovation" cx="70%" cy="20%" r="60%">
      <stop offset="0%" stop-color="#ffffff" stop-opacity="0.18"/>
      <stop offset="100%" stop-color="#ffffff" stop-opacity="0"/>
    </radialGradient>
  </defs>
  <rect width="800" height="600" fill="url(#bg-innovation)"/>
  <rect width="800" height="600" fill="url(#glow-innovation)"/>
  <circle cx="20" cy="40" r="4" fill="#f472b6" opacity="0.4"/><circle cx="157" cy="129" r="5" fill="#f472b6" opacity="0.4"/><circle cx="294" cy="218" r="6" fill="#f472b6" opacity="0.4"/><circle cx="431" cy="307" r="7" fill="#f472b6" opacity="0.4"/><circle cx="568" cy="396" r="8" fill="#f472b6" opacity="0.4"/><circle cx="705" cy="485" r="4" fill="#f472b6" opacity="0.4"/><circle cx="82" cy="74" r="5" fill="#f472b6" opacity="0.4"/><circle cx="219" cy="163" r="6" fill="#f472b6" opacity="0.4"/><circle cx="356" cy="252" r="7" fill="#f472b6" opacity="0.4"/><circle cx="493" cy="341" r="8" fill="#f472b6" opacity="0.4"/><circle cx="630" cy="430" r="4" fill="#f472b6" opacity="0.4"/><circle cx="767" cy="519" r="5" fill="#f472b6" opacity="0.4"/><circle cx="144" cy="108" r="6" fill="#f472b6" opacity="0.4"/><circle cx="281" cy="197" r="7" fill="#f472b6" opacity="0.4"/><circle cx="418" cy="286" r="8" fill="#f472b6" opacity="0.4"/><circle cx="555" cy="375" r="4" fill="#f472b6" opacity="0.4"/><circle cx="692" cy="464" r="5" fill="#f472b6" opacity="0.4"/><circle cx="69" cy="53" r="6" fill="#f472b6" opacity="0.4"/><circle cx="206" cy="142" r="7" fill="#f472b6" opacity="0.4"/><circle cx="343" cy="231" r="8" fill="#f472b6" opacity="0.4"/>
</svg>