<?xml version="1.0" encoding="UTF-8"?>
<svg xmlns="http://www.w3.org/2000/svg" viewBox="0 0 800 600" width="800" height="600">
  <defs>
    <linearGradient id="bg-portfolio" x1="0%" y1="0%" x2="100%" y2="100%">
      <stop offset="0%" stop-color="#b45309"/>
      <stop offset="55%" stop-color="#d97706"/>
      <stop offset="100%" stop-color="#fbbf24"/>
    </linearGradient>
    <radialGradient id="glow-portfolio" cx="70%" cy="20%" r="60%">
      <stop offset="0%" stop-color="#ffffff" stop-opacity="0.18"/>
      <stop offset="100%" stop-color="#ffffff" stop-opacity="0"/>
    </radialGradient>
  </defs>
  <rect width="800" height="600" fill="url(#bg-portfolio)"/>
  <rect width="800" height="600" fill="url(#glow-portfolio)"/>
  <rect x="20" y="20" width="60" height="50" rx="8" fill="#fbbf24" opacity="0.15"/><rect x="120" y="20" width="60" height="50" rx="8" fill="#fbbf24" opacity="0.15"/><rect x="220" y="20" width="60" height="50" rx="8" fill="#fbbf24" opacity="0.15"/><rect x="320" y="20" width="60" height="50" rx="8" fill="#fbbf24" opacity="0.15"/><rect x="420" y="20" width="60" height="50" rx="8" fill="#fbbf24" opacity="0.15"/><rect x="520" y="20" width="60" height="50" rx="8" fill="#fbbf24" opacity="0.15"/><rect x="620" y="20" width="60" height="50" rx="8" fill="#fbbf24" opacity="0.15"/><rect x="720" y="20" width="60" height="50" rx="8" fill="#fbbf24" opacity="0.15"/><rect x="20" y="110" width="60" height="50" rx="8" fill="#fbbf24" opacity="0.15"/><rect x="120" y="110" width="60" height="50" rx="8" fill="#fbbf24" opacity="0.15"/><rect x="220" y="110" width="60" height="50" rx="8" fill="#fbbf24" opacity="0.15"/><rect x="320" y="110" width="60" height="50" rx="8" fill="#fbbf24" opacity="0.15"/><rect x="420" y="110" width="60" height="50" rx="8" fill="#fbbf24" opacity="0.15"/><rect x="520" y="110" width="60" height="50" rx="8" fill="#fbbf24" opacity="0.15"/><rect x="620" y="110" width="60" height="50" rx="8" fill="#fbbf24" opacity="0.15"/><rect x="720" y="110" width="60" height="50" rx="8" fill="#fbbf24" opacity="0.15"/><rect x="20" y="200" width="60" height="50" rx="8" fill="#fbbf24" opacity="0.15"/><rect x="120" y="200" width="60" height="50" rx="8" fill="#fbbf24" opacity="0.15"/><rect x="220" y="200" width="60" height="50" rx="8" fill="#fbbf24" opacity="0.15"/><rect x="320" y="200" width="60" height="50" rx="8" fill="#fbbf24" opacity="0.15"/><rect x="420" y="200" width="60" height="50" rx="8" fill="#fbbf24" opacity="0.15"/><rect x="520" y="200" width="60" height="50" rx="8" fill="#fbbf24" opacity="0.15"/><rect x="620" y="200" width="60" height="50" rx="8" fill="#fbbf24" opacity="0.15"/><rect x="720" y="200" width="60" height="50" rx="8" fill="#fbbf24" opacity="0.15"/><rect x="20" y="290" width="60" height="50" rx="8" fill="#fbbf24" opacity="0.15"/><rect x="120" y="290" width="60" height="50" rx="8" fill="#fbbf24" opacity="0.15"/><rect x="220" y="290" width="60" height="50" rx="8" fill="#fbbf24" opacity="0.15"/><rect x="320" y="290" width="60" height="50" rx="8" fill="#fbbf24" opacity="0.15"/><rect x="420" y="290" width="60" height="50" rx="8" fill="#fbbf24" opacity="0.15"/><rect x="520" y="290" width="60" height="50" rx="8" fill="#fbbf24" opacity="0.15"/><rect x="620" y="290" width="60" height="50" rx="8" fill="#fbbf24" opacity="0.15"/><rect x="720" y="290" width="60" height="50" rx="8" fill="#fbbf24" opacity="0.15"/><rect x="20" y="380" width="60" height="50" rx="8" fill="#fbbf24" opacity="0.15"/><rect x="120" y="380" width="60" height="50" rx="8" fill="#fbbf24" opacity="0.15"/><rect x="220" y="380" width="60" height="50" rx="8" fill="#fbbf24" opacity="0.15"/><rect x="320" y="380" width="60" height="50" rx="8" fill="#fbbf24" opacity="0.15"/><rect x="420" y="380" width="60" height="50" rx="8" fill="#fbbf24" opacity="0.15"/><rect x="520" y="380" width="60" height="50" rx="8" fill="#fbbf24" opacity="0.15"/><rect x="620" y="380" width="60" height="50" rx="8" fill="#fbbf24" opacity="0.15"/><rect x="720" y="380" width="60" height="50" rx="8" fill="#fbbf24" opacity="0.15"/><rect x="20" y="470" width="60" height="50" rx="8" fill="#fbbf24" opacity="0.15"/><rect x="120" y="470" width="60" height="50" rx="8" fill="#fbbf24" opacity="0.15"/><rect x="220" y="470" width="60" height="50" rx="8" fill="#fbbf24" opacity="0.15"/><rect x="320" y="470" width="60" height="50" rx="8" fill="#fbbf24" opacity="0.15"/><rect x="420" y="470" width="60" height="50" rx="8" fill="#fbbf24" opacity="0.15"/><rect x="520" y="470" width="60" height="50" rx="8" fill="#fbbf24" opacity="0.15"/><rect x="620" y="470" width="60" height="50" rx="8" fill="#fbbf24" opacity="0.15"/><rect x="720" y="470" width="60" height="50" rx="8" fill="#fbbf24" opacity="0.15"/>
</svg>